<svg xmlns:dc="http://purl.org/dc/elements/1.1/" xmlns:cc="http://creativecommons.org/ns#" xmlns:rdf="http://www.w3.org/1999/02/22-rdf-syntax-ns#" xmlns:svg="http://www.w3.org/2000/svg" xmlns="http://www.w3.org/2000/svg" xmlns:sodipodi="http://sodipodi.sourceforge.net/DTD/sodipodi-0.dtd" xmlns:inkscape="http://www.inkscape.org/namespaces/inkscape" height="100px" width="100px" fill="#ffffff" viewBox="0 0 47.999997 48" x="0px" y="0px"><path style="color:#000000;font-style:normal;font-variant:normal;font-weight:normal;font-stretch:normal;font-size:medium;line-height:normal;font-family:sans-serif;text-indent:0;text-align:start;text-decoration:none;text-decoration-line:none;text-decoration-style:solid;text-decoration-color:#000000;letter-spacing:normal;word-spacing:normal;text-transform:none;direction:ltr;block-progression:tb;writing-mode:lr-tb;baseline-shift:baseline;text-anchor:start;white-space:normal;clip-rule:nonzero;display:inline;overflow:visible;visibility:visible;opacity:1;isolation:auto;mix-blend-mode:normal;color-interpolation:sRGB;color-interpolation-filters:linearRGB;solid-color:#000000;solid-opacity:1;fill:#ffffff;fill-opacity:1;fill-rule:nonzero;stroke:none;stroke-width:2;stroke-linecap:butt;stroke-linejoin:round;stroke-miterlimit:4;stroke-dasharray:none;stroke-dashoffset:0;stroke-opacity:1;marker:none;color-rendering:auto;image-rendering:auto;shape-rendering:auto;text-rendering:auto;enable-background:accumulate" d="M 24 0.00390625 C 20.365 0.00390625 16.729134 1.3171962 13.865234 3.9414062 C 8.2508347 9.0860861 7.416844 17.615449 11.839844 23.755859 C 13.898344 26.407249 15 29.6609 15 33 C 15 33.79526 15.316606 34.558764 15.878906 35.121094 C 16.197306 35.439494 16.5834 35.668436 17 35.816406 L 17 44 C 17 46.12247 18.70995 48 20.78125 48 L 27.267578 48 C 29.295178 48 31 46.11043 31 44 C 31.0001 43.993 30.9999 43.21862 31 43 C 31.0002 42.12553 31.0001 40.89193 31 39 C 30.9999 37.49421 31 35.816406 31 35.816406 C 31.4166 35.668436 31.802694 35.439494 32.121094 35.121094 C 32.683394 34.558764 33 33.79526 33 33 C 33 29.6609 34.113375 26.415062 36.171875 23.763672 C 40.594875 17.623262 39.749166 9.0860861 34.134766 3.9414062 C 31.270866 1.3171962 27.635 0.00390625 24 0.00390625 z M 24 1.9960938 C 27.1475 1.9960938 30.295103 3.1360556 32.783203 5.4160156 C 37.759503 9.9759155 38.423353 17.559313 34.314453 22.914062 C 32.166253 25.842692 31 29.37223 31 33 C 31 33.2656 30.894831 33.519221 30.707031 33.707031 C 30.519231 33.894841 30.2656 34 30 34 L 25 34 L 25 25.855469 C 26.715786 25.405569 28 23.8503 28 22 C 28 19.8027 26.197294 18 24 18 C 21.802706 18 20 19.8027 20 22 C 20 23.8503 21.284214 25.405569 23 25.855469 L 23 34 L 18 34 C 17.7344 34 17.480769 33.894841 17.292969 33.707031 C 17.105169 33.519221 17 33.2656 17 33 C 17 29.37223 15.825834 25.848692 13.677734 22.919922 C 9.5689344 17.565172 10.240497 9.9759155 15.216797 5.4160156 C 17.704897 3.1360556 20.8525 1.9960938 24 1.9960938 z M 24 4.9980469 C 23.4477 4.9980569 23 5.4457769 23 5.9980469 C 23 6.550327 23.4477 6.9980469 24 6.9980469 C 26.4868 6.9980469 28.82985 8.1540132 30.34375 10.126953 C 30.67995 10.565093 31.307994 10.6487 31.746094 10.3125 C 32.184194 9.97629 32.265888 9.3483061 31.929688 8.9101562 C 30.038287 6.4452364 27.107 4.9980469 24 4.9980469 z M 32.826172 11.675781 C 32.697472 11.657881 32.563088 11.665472 32.429688 11.701172 C 31.896187 11.844112 31.579656 12.392321 31.722656 12.925781 C 31.903456 13.600791 31.996094 14.297274 31.996094 14.996094 C 31.996094 15.548374 32.443794 15.996094 32.996094 15.996094 C 33.548394 15.996094 33.996094 15.548374 33.996094 14.996094 C 33.996094 14.122494 33.88235 13.252043 33.65625 12.408203 C 33.54905 12.008113 33.212172 11.729521 32.826172 11.675781 z M 24 20 C 25.116414 20 26 20.8836 26 22 C 26 23.1164 25.116414 24 24 24 C 22.883586 24 22 23.1164 22 22 C 22 20.8836 22.883586 20 24 20 z M 19 36 L 29 36 L 29 38 L 22 38 C 21.446 38 21 38.446 21 39 C 21 39.554 21.446 40 22 40 L 29 40 L 29 42 L 22 42 C 21.446 42 21 42.446 21 43 C 21 43.554 21.446 44 22 44 L 29 44 C 29 45.11641 28.130072 46 27.013672 46 L 21 46 C 19.8836 46 19 45.11641 19 44 L 19 36 z " transform="translate(-1.9073486e-6,0)"></path></svg>