<?xml version="1.0" encoding="UTF-8"?>
<svg width="30px" height="33px" viewBox="0 0 30 33" version="1.1" xmlns="http://www.w3.org/2000/svg" xmlns:xlink="http://www.w3.org/1999/xlink">
    <title>3F68D9EC-B3A9-4C28-BA98-ABBF9289A226</title>
    <g id="Plantillas-HTML" stroke="none" stroke-width="1" fill="none" fill-rule="evenodd">
        <g id="Desktop/Inicio" transform="translate(-319.000000, -248.000000)" fill="#0055CF" fill-rule="nonzero">
            <g id="noun_service_2334518-copy" transform="translate(319.000000, 248.000000)">
                <path d="M27.1299822,23.179262 C26.273555,23.4847524 24.9032716,23.8581296 23.3959598,24.1975633 C22.8478464,25.0800912 21.8543909,25.7929021 20.312822,26.0983925 C19.935994,26.1662792 19.5591661,26.2002226 19.1138239,26.2002226 C18.0518542,26.234166 16.784342,26.1323358 15.3798015,25.9965623 C15.2770302,25.9965623 15.174259,25.9965623 15.1057448,25.962619 C14.7631739,25.9286756 14.4548601,25.6910719 14.4548601,25.3516382 C14.4206031,24.9103743 14.7631739,24.5709405 15.2085161,24.6048839 C15.3112873,24.6048839 15.4140586,24.6388272 15.5510869,24.6388272 C17.3667125,24.8085441 19.0453098,24.9443176 20.1415365,24.7406574 C22.1284475,24.3672802 22.710818,23.179262 22.5737897,22.1609607 C22.4710184,21.3463196 21.8543909,20.5316786 20.8609353,20.6335087 C19.4563948,20.7353389 17.8120546,20.6335087 16.2362287,20.4977352 C14.4206031,20.3619617 12.5364633,20.3280183 11.2004369,20.4637918 C9.7273822,20.6335087 6.71275857,21.7196968 4.04070582,23.5186958 C2.73893653,24.4012236 1.30013889,25.4534683 0.409454638,26.0644491 C-0.0358874877,26.4038829 -0.138658747,27.0148637 0.203912119,27.4561276 L4.00644873,32.445804 C4.3490196,32.8870679 4.96564716,32.9549547 5.3767322,32.6155209 L6.81552983,31.5293328 C7.1581007,31.2577858 7.60344283,31.1898991 8.01452787,31.3256726 C10.6180664,32.1403136 13.3928905,32.6834077 15.2085161,32.7852378 C19.1823381,32.9888981 26.7874113,28.3386554 28.9798649,26.8451468 C31.1380613,25.3176948 29.5622353,22.2967342 27.1299822,23.179262 Z" id="Path"></path>
                <path d="M10.2436658,11.0269336 L11.658221,11.0269336 C11.8307278,11.6145758 12.0377358,12.1676509 12.348248,12.6861587 L11.3477089,13.65404 C11.1061995,13.8960104 11.1061995,14.2762495 11.3477089,14.5182198 L13.245283,16.4194152 C13.4867925,16.6613856 13.8663073,16.6613856 14.1078167,16.4194152 L15.1083558,15.4169667 C15.625876,15.6935042 16.1778976,15.9354746 16.7644205,16.1083105 L16.7644205,17.4909981 C16.7644205,17.83667 17.0404313,18.1132075 17.3854447,18.1132075 L20.0420485,18.1132075 C20.387062,18.1132075 20.6630728,17.83667 20.6630728,17.4909981 L20.6630728,16.0737433 C21.2495957,15.9009074 21.8016173,15.6935042 22.3191375,15.3823995 L23.2851752,16.384848 C23.5266846,16.6268184 23.9061995,16.6268184 24.1477089,16.384848 L26.045283,14.4836526 C26.2867925,14.2416823 26.2867925,13.8614432 26.045283,13.6194729 L25.0447439,12.6515915 C25.3207547,12.1330837 25.5622642,11.5800086 25.7347709,10.9923664 L27.1148248,10.9923664 C27.4598383,10.9923664 27.7358491,10.7158289 27.7358491,10.370157 L27.7358491,7.70848336 C27.7358491,7.36281146 27.4598383,7.08627394 27.1148248,7.08627394 L25.7002695,7.08627394 C25.5277628,6.49863172 25.3207547,5.94555668 25.0102426,5.42704883 L26.0107817,4.42460032 C26.2522911,4.18262999 26.2522911,3.8023909 26.0107817,3.56042057 L24.1132075,1.65922512 C23.8716981,1.41725479 23.4921833,1.41725479 23.2506739,1.65922512 L22.2846361,2.69624082 C21.7671159,2.4197033 21.2150943,2.17773297 20.6285714,2.00489702 L20.6285714,0.62220942 C20.6285714,0.27653752 20.3525606,0 20.0075472,0 L17.3509434,0 C17.0059299,0 16.7299191,0.27653752 16.7299191,0.62220942 L16.7299191,2.03946421 C16.1433962,2.21230016 15.5913747,2.4197033 15.0738544,2.73080801 L14.0733154,1.76292669 C13.8318059,1.52095636 13.4522911,1.52095636 13.2107817,1.76292669 L11.3132075,3.66412214 C11.0716981,3.90609247 11.0716981,4.28633156 11.3132075,4.52830189 L12.3137466,5.5307504 C12.0377358,6.04925825 11.7962264,6.60233329 11.6237197,7.18997551 L10.2436658,7.18997551 C9.89865229,7.18997551 9.62264151,7.46651303 9.62264151,7.81218493 L9.62264151,10.4738586 C9.62264151,10.7503961 9.89865229,11.0269336 10.2436658,11.0269336 Z M18.6619946,4.52830189 C21.1460916,4.52830189 23.1816712,6.5677661 23.1816712,9.05660377 C23.1816712,11.5454415 21.1460916,13.5849057 18.6619946,13.5849057 C16.1778976,13.5849057 14.1423181,11.5454415 14.1423181,9.05660377 C14.1423181,6.5677661 16.1778976,4.52830189 18.6619946,4.52830189 Z" id="Shape"></path>
                <path d="M17.9857782,11.0697219 C18.1276942,11.2490311 18.3405683,11.3207547 18.5889213,11.3207547 C18.8017954,11.3207547 19.0146695,11.2131692 19.1920645,11.0697219 L21.8529903,8.1649135 C22.1723013,7.84215701 22.1368223,7.30422953 21.8175112,7.01733487 C21.4982002,6.69457838 20.966015,6.73044022 20.6821829,7.0531967 L18.6244003,9.31249212 L17.8083831,8.41594632 C17.489072,8.09318983 16.9923659,8.057328 16.6730548,8.38008449 C16.3537437,8.70284098 16.3182647,9.20490663 16.6375758,9.52766311 L17.9857782,11.0697219 Z" id="Path"></path>
            </g>
        </g>
    </g>
</svg>