<?xml version="1.0" encoding="UTF-8"?>
<svg width="30px" height="33px" viewBox="0 0 30 33" version="1.1" xmlns="http://www.w3.org/2000/svg" xmlns:xlink="http://www.w3.org/1999/xlink">
    <title>901EB206-F722-41B0-B178-0C32C1FB9191</title>
    <g id="Plantillas-HTML" stroke="none" stroke-width="1" fill="none" fill-rule="evenodd">
        <g id="Desktop/Inicio" transform="translate(-1247.000000, -249.000000)" fill="#0055CF">
            <g id="Icon_minas" transform="translate(1247.000000, 249.000000)">
                <g id="Group-18" transform="translate(6.818182, 25.909091)">
                    <rect id="Rectangle" x="0" y="0" width="2.72727273" height="5.45454545" rx="1.36363636"></rect>
                    <rect id="Rectangle-Copy-3" x="14.3181818" y="0" width="2.72727273" height="5.45454545" rx="1.36363636"></rect>
                </g>
                <path d="M17.3863636,7.26691434e-15 C20.210547,7.26691434e-15 22.5,2.28945298 22.5,5.11363636 C22.5,5.18236352 22.4986442,5.25077401 22.4959578,5.31884255 C23.5330494,5.91602701 24.2832778,6.95643194 24.488873,8.18170067 L5.51110244,8.18178485 C5.47390633,7.9600623 5.45454545,7.73229214 5.45454545,7.5 C5.45454545,5.2406533 7.28610784,3.40909091 9.54545455,3.40909091 L9.61145831,3.4096126 L9.61145831,3.4096126 C9.56800552,3.19297483 9.54545455,2.96363515 9.54545455,2.72727273 C9.54545455,1.22104159 10.4612357,7.26691434e-15 11.5909091,7.26691434e-15 C12.4706422,7.26691434e-15 13.2206601,0.740502581 13.5094787,1.77952901 C14.4464793,0.69009271 15.8358316,7.26691434e-15 17.3863636,7.26691434e-15 Z" id="Combined-Shape"></path>
                <polygon id="Rectangle" points="2.72727273 8.86363636 27.9545455 8.86363636 23.8636364 25.2272727 6.81818182 25.2272727"></polygon>
                <rect id="Rectangle" x="0" y="31.3636364" width="30" height="1.36363636"></rect>
                <rect id="Rectangle-Copy" x="2.72727273" y="28.6363636" width="24.5454545" height="1.36363636"></rect>
                <rect id="Rectangle-Copy-2" x="10.2272727" y="25.9090909" width="10.2272727" height="1.36363636"></rect>
            </g>
        </g>
    </g>
</svg>