<?xml version="1.0" encoding="UTF-8"?>
<svg width="32px" height="32px" viewBox="0 0 32 32" version="1.1" xmlns="http://www.w3.org/2000/svg" xmlns:xlink="http://www.w3.org/1999/xlink">
    <title>3FE9A556-E539-4C9F-AA27-A35141DF6FA6</title>
    <g id="Plantillas-HTML" stroke="none" stroke-width="1" fill="none" fill-rule="evenodd">
        <g id="Desktop/Inicio" transform="translate(-937.000000, -249.000000)" fill="#0055CF" fill-rule="nonzero">
            <g id="noun_Bus_40534" transform="translate(937.000000, 249.000000)">
                <path d="M1.59537778,7.5776 C1.59537778,7.33048889 1.39484444,7.12995556 1.14808889,7.12995556 L0.446933333,7.12995556 C0.199822222,7.12995556 0,7.32977778 0,7.5776 L0,11.3201778 C0,11.5669333 0.199822222,11.7674667 0.446933333,11.7674667 L1.14773333,11.7674667 C1.39448889,11.7674667 1.59502222,11.5672889 1.59502222,11.3201778 L1.59537778,7.5776 L1.59537778,7.5776 Z" id="Path"></path>
                <path d="M32,7.5776 C32,7.33048889 31.7994667,7.12995556 31.5527111,7.12995556 L30.8515556,7.12995556 C30.6058667,7.12995556 30.4056889,7.32977778 30.4056889,7.5776 L30.4056889,11.3201778 C30.4056889,11.5669333 30.6055111,11.7674667 30.8515556,11.7674667 L31.5534222,11.7674667 C31.7994667,11.7674667 32.0003556,11.5672889 32.0003556,11.3201778 L32.0003556,7.5776 L32,7.5776 Z" id="Path"></path>
                <path d="M4.65208889,30.2179556 C4.65208889,30.7157333 5.06133333,31.1224889 5.55982222,31.1224889 L9.38133333,31.1224889 C9.87982222,31.1224889 10.2887111,30.7157333 10.2887111,30.2179556 L10.2887111,28.4081778 L4.65208889,28.4081778 L4.65208889,30.2179556 Z" id="Path"></path>
                <path d="M21.7109333,30.2179556 C21.7109333,30.7157333 22.1176889,31.1224889 22.6165333,31.1224889 L26.4380444,31.1224889 C26.9358222,31.1224889 27.3479111,30.7157333 27.3479111,30.2179556 L27.3479111,28.4081778 L21.7109333,28.4081778 L21.7109333,30.2179556 Z" id="Path"></path>
                <path d="M27.8595556,0.1664 L4.12977778,0.1664 C3.19431111,0.1664 2.43057778,0.9248 2.43057778,1.85991111 L2.43057778,25.808 C2.43057778,26.7438222 3.19431111,27.5146667 4.12977778,27.5146667 L27.8595556,27.5146667 C28.7957333,27.5146667 29.5548444,26.7438222 29.5548444,25.808 L29.5548444,1.85955556 C29.5548444,0.9248 28.7950222,0.1664 27.8595556,0.1664 Z M5.56195556,23.9804444 L4.02488889,23.9804444 C3.712,23.9804444 3.45955556,23.7194667 3.45955556,23.4087111 L3.45955556,22.6986667 C3.45955556,22.3872 3.712,22.1312 4.02488889,22.1312 L5.56195556,22.1312 L5.56195556,23.9804444 Z M4.65208889,21.0755556 L4.65208889,20.6296889 C4.65208889,20.4423111 4.80675556,20.2961778 4.99306667,20.2961778 L6.59911111,20.2961778 C6.78506667,20.2961778 6.93368889,20.4416 6.93368889,20.6296889 L6.93368889,21.0755556 C6.93368889,21.2622222 6.78506667,21.4151111 6.59911111,21.4151111 L4.99306667,21.4151111 C4.80675556,21.4151111 4.65208889,21.2629333 4.65208889,21.0755556 Z M8.12622222,23.4087111 C8.12622222,23.7194667 7.87982222,23.9804444 7.56728889,23.9804444 L6.02417778,23.9804444 L6.02417778,22.1312 L7.56728889,22.1312 C7.88017778,22.1312 8.12622222,22.3875556 8.12622222,22.6986667 L8.12622222,23.4087111 Z M15.3589333,15.4364444 C15.3589333,16.1912889 14.7459556,16.8074667 13.9872,16.8074667 L4.83022222,16.8074667 C4.07395556,16.8074667 3.4592,16.1912889 3.4592,15.4364444 L3.4592,7.488 C3.4592,6.73244444 4.07395556,6.11626667 4.83022222,6.11626667 L13.9872,6.11626667 C14.7459556,6.11626667 15.3589333,6.73244444 15.3589333,7.488 L15.3589333,15.4364444 Z M15.9850667,5.20675556 C15.6458667,5.20675556 9.056,5.20675556 7.7216,5.20675556 C6.35164444,5.20675556 5.93991111,4.33884444 5.93991111,3.42222222 C5.93991111,2.5056 6.42204444,1.99111111 7.25653333,1.90471111 C8.09066667,1.81831111 10.2019556,1.74008889 11.0321778,1.70382222 C11.8627556,1.66755556 13.9114667,1.71733333 15.9463111,1.71733333 L16.0373333,1.71733333 C18.0721778,1.71733333 20.1198222,1.66755556 20.9504,1.70382222 C21.7806222,1.74044444 23.8915556,1.81902222 24.7253333,1.90471111 C25.5598222,1.99111111 26.0426667,2.50524444 26.0426667,3.42222222 C26.0426667,4.33848889 25.6305778,5.20675556 24.2602667,5.20675556 C22.9255111,5.20675556 16.3381333,5.20675556 15.9996444,5.20675556 C15.9996444,5.20675556 15.9943111,5.20675556 15.9850667,5.20675556 Z M25.9758222,23.9804444 L24.4298667,23.9804444 C24.1176889,23.9804444 23.8584889,23.7194667 23.8584889,23.4087111 L23.8584889,22.6986667 C23.8584889,22.3872 24.1176889,22.1312 24.4298667,22.1312 L25.9758222,22.1312 L25.9758222,23.9804444 Z M25.0510222,21.0755556 L25.0510222,20.6296889 C25.0510222,20.4423111 25.2103111,20.2961778 25.3980444,20.2961778 L27.0044444,20.2961778 C27.1911111,20.2961778 27.3482667,20.4416 27.3482667,20.6296889 L27.3482667,21.0755556 C27.3482667,21.2622222 27.1921778,21.4151111 27.0044444,21.4151111 L25.3980444,21.4151111 C25.2103111,21.4151111 25.0510222,21.2629333 25.0510222,21.0755556 Z M28.5408,23.4087111 C28.5408,23.7194667 28.2840889,23.9804444 27.9712,23.9804444 L26.4380444,23.9804444 L26.4380444,22.1312 L27.9712,22.1312 C28.2844444,22.1312 28.5408,22.3875556 28.5408,22.6986667 L28.5408,23.4087111 Z M28.5408,15.4364444 C28.5408,16.1912889 27.9256889,16.8074667 27.1676444,16.8074667 L18.0081778,16.8074667 C17.2504889,16.8074667 16.6414222,16.1912889 16.6414222,15.4364444 L16.6414222,7.488 C16.6414222,6.73244444 17.2504889,6.11626667 18.0081778,6.11626667 L27.1676444,6.11626667 C27.9256889,6.11626667 28.5408,6.73244444 28.5408,7.488 L28.5408,15.4364444 Z" id="Shape"></path>
            </g>
        </g>
    </g>
</svg>