<?xml version="1.0" encoding="UTF-8"?>
<svg width="28px" height="26px" viewBox="0 0 28 26" version="1.1" xmlns="http://www.w3.org/2000/svg" xmlns:xlink="http://www.w3.org/1999/xlink">
    <title>14344793-758C-4DC2-97F1-66A58F9A9D19</title>
    <g id="Plantillas-HTML" stroke="none" stroke-width="1" fill="none" fill-rule="evenodd">
        <g id="Desktop/Inicio" transform="translate(-629.000000, -252.000000)" fill-rule="nonzero">
            <g id="noun_Road_25485" transform="translate(629.000000, 252.000000)">
                <path d="M12.4867204,5.92307692 C12.3312331,5.92307692 7.48907322,5.92307692 7.48907322,5.92307692 C8.42478864,5.92307692 9.32421439,6.06863177 10.1666933,6.33414941 L8.56101452,6.33414941 C7.71853565,6.06836519 6.81938906,5.92307692 5.88367363,5.92307692 L0,5.92307692 C2.46518584,5.92307692 7.89300526,7.49938794 8.51327963,13.4615385 L14.3966741,13.4615385 C14.3673632,13.0877877 14.3059499,12.7228343 14.2258335,12.3650786 L15.8312331,12.3650786 C15.9116286,12.7231009 15.973042,13.0877877 16.0023528,13.4615385 L21,13.4615385 C20.6694848,9.24604612 16.9858032,5.92307692 12.4867204,5.92307692 Z M9.90066199,6.88277922 L11.4812171,6.88277922 C11.4876376,6.88277922 11.4932206,6.87958021 11.4993619,6.87931363 C12.22041,7.24666634 12.876974,7.71238854 13.4562131,8.25328742 L11.8508135,8.25328742 C11.2732493,7.71372146 10.6189185,7.24933218 9.90066199,6.88277922 Z M14.0806747,11.8169819 C13.7412267,10.6941303 13.1617084,9.66858172 12.3898548,8.80138406 L13.9952544,8.80138406 C14.767108,9.66858172 15.3466263,10.6941303 15.6863535,11.8169819 L14.0806747,11.8169819 Z" id="Shape" fill="#0055CF"></path>
                <path d="M9.16371353,0.0155719471 C8.52767462,0.0521796823 7.92389036,0.196698279 7.36339523,0.421535339 L6.68463307,0.421535339 C7.34953139,0.151348398 8.03282051,0 8.80014147,0 C8.80014147,0 5.69181256,0 5.57043324,0 C2.67345712,0 0.291140584,2.12324864 0,4.84615385 L3.2758267,4.84615385 C3.31204244,4.50821528 3.38079576,4.17956523 3.47840849,3.86293564 L4.13425287,3.86293564 C4.03664014,4.17956523 3.96675508,4.50794208 3.93053935,4.84615385 L7.85683466,4.84615385 C8.29085765,1.40475354 11.2002829,0.140420716 12.9230769,0.0245872849 C12.9230769,0.0245872849 9.05846154,0.00846895367 9.16371353,0.0155719471 Z M4.34730327,3.30097959 L3.69089302,3.30097959 C3.86744474,2.89856769 4.09549072,2.52292862 4.36258179,2.17734067 L5.02040672,2.17734067 C4.75303271,2.52265543 4.52442087,2.8982945 4.34730327,3.30097959 Z M5.52148541,1.61538462 L4.86139699,1.61538462 C5.09906278,1.38235179 5.35992927,1.17199391 5.63748895,0.983218202 L6.29616269,0.983218202 C6.01832007,1.17144753 5.75886826,1.38317137 5.52148541,1.61538462 Z" id="Shape" fill="#0055CF"></path>
                <path d="M1.78015385,5.65653846 C1.84961538,5.65546154 1.91907692,5.65115385 1.98907692,5.65115385 L1.78176923,5.65115385 L1.78015385,5.65653846 Z" id="Path" fill="#FFFFFF"></path>
                <path d="M7.54200617,5.66569231 C7.71923767,5.64953846 7.8974359,5.642 8.07692308,5.642 L7.53846154,5.642 L7.54200617,5.66569231 Z" id="Path" fill="#FFFFFF"></path>
                <path d="M28,25.8461538 C27.9808549,19.5619408 25.4511679,14.4333079 22.2553441,14.0288687 L22.242393,14 L14.9816143,14 C15.2637229,14.151283 15.4160391,14.9695992 15.4971242,16.2598073 L13.4697145,16.2598073 C13.5544598,14.9063102 13.7149407,14.0760579 14.0153499,14 L7.03977676,14 L7.03555357,14.0094378 C3.73921801,14.2065221 1.09634972,19.4223163 1.07692308,25.8461538 L13.3894741,25.8461538 C13.3903187,24.3805129 13.3832801,22.9787162 13.3804646,21.683234 L15.5815879,21.683234 C15.5773647,22.9792714 15.5691999,24.3813457 15.5700445,25.8461538 L28,25.8461538 Z M13.3793384,21.1122447 C13.3779307,19.4500746 13.3883479,17.9916509 13.4393076,16.830519 L15.5266865,16.830519 C15.5776462,17.9930388 15.5860926,19.4522953 15.5829956,21.1122447 L13.3793384,21.1122447 Z" id="Shape" fill="#0055CF"></path>
            </g>
        </g>
    </g>
</svg>